<?xml version="1.0" encoding="iso-8859-1"?>
<!-- Uploaded to: SVG Repo, www.svgrepo.com, Generator: SVG Repo Mixer Tools -->
<!DOCTYPE svg PUBLIC "-//W3C//DTD SVG 1.1//EN" "http://www.w3.org/Graphics/SVG/1.1/DTD/svg11.dtd">
<svg fill="#000000" height="800px" width="800px" version="1.1" id="Capa_1" xmlns="http://www.w3.org/2000/svg" xmlns:xlink="http://www.w3.org/1999/xlink" 
	 viewBox="0 0 489.635 489.635" xml:space="preserve">
<g>
	<path d="M161.593,329.399h253.478c6.97,0,13.021-4.801,14.606-11.587l47.604-203.77c1.042-4.459-0.01-9.148-2.855-12.735
		c-2.845-3.587-7.173-5.678-11.751-5.678h-335.54l-16.121-71.66c-1.355-6.024-6.202-10.642-12.285-11.705L29.884,0.231
		C21.566-1.224,13.644,4.342,12.19,12.66c-1.454,8.318,4.11,16.239,12.429,17.693l58.8,10.277l59.043,262.449
		c-19.143,7.632-32.716,26.34-32.716,48.175c0,28.592,23.259,51.854,51.847,51.854h298.186c8.284,0,15-6.716,15-15
		c0-8.284-6.716-15-15-15H161.593c-12.047,0-21.847-9.804-21.847-21.854C139.746,339.204,149.546,329.399,161.593,329.399z
		 M273.163,299.399h-30.78l-16.059-71.885h46.838V299.399z M403.504,125.629h40.263l-16.794,71.885h-39.527L403.504,125.629z
		 M419.964,227.515l-16.793,71.885h-38.486l16.059-71.885H419.964z M303.163,125.629h69.602l-16.059,71.885h-53.544V125.629z
		 M303.163,227.515h46.842l-16.059,71.885h-30.783V227.515z M273.163,125.629v71.885h-53.54l-16.059-71.885H273.163z
		 M211.643,299.399h-38.494l-16.343-71.885h38.778L211.643,299.399z M172.824,125.629l16.059,71.885h-38.826l-16.172-71.885H172.824
		z"/>
	<g>
		<path d="M231.152,457.117c0,17.953-14.541,32.518-32.502,32.518c-17.96,0-32.526-14.565-32.526-32.518
			c0-17.96,14.566-32.514,32.526-32.514C216.611,424.603,231.152,439.157,231.152,457.117z"/>
		<path d="M409.88,457.117c0,17.953-14.549,32.518-32.51,32.518c-17.961,0-32.525-14.565-32.525-32.518
			c0-17.96,14.565-32.514,32.525-32.514C395.331,424.603,409.88,439.157,409.88,457.117z"/>
	</g>
</g>
</svg>